<svg xmlns="http://www.w3.org/2000/svg" xmlns:xlink="http://www.w3.org/1999/xlink" width="1080" zoomAndPan="magnify" viewBox="0 0 810 809.999993" height="1080" preserveAspectRatio="xMidYMid meet" version="1.0"><path fill="#231d43" d="M 500.542969 77.515625 C 307.621094 13.949219 102.921875 109.035156 43.328125 289.898438 C 8.492188 395.617188 30.953125 507.238281 94.148438 594.4375 L 77.996094 647.160156 L 55.269531 709.46875 L 118.90625 690.765625 L 172.015625 673.660156 C 189.0625 686.488281 207.042969 697.835938 225.957031 707.703125 C 244.871094 717.574219 264.464844 725.832031 284.738281 732.476562 C 477.65625 796.042969 682.359375 700.957031 741.953125 520.09375 C 801.546875 339.230469 693.464844 141.078125 500.542969 77.515625 Z M 392.640625 689.9375 C 235.273438 689.9375 107.699219 562.363281 107.699219 404.996094 C 107.699219 247.628906 235.273438 120.054688 392.640625 120.054688 C 550.007812 120.054688 677.582031 247.628906 677.582031 404.996094 C 677.582031 562.363281 550.007812 689.9375 392.640625 689.9375 Z M 392.640625 689.9375 " fill-opacity="1" fill-rule="nonzero"/><path fill="#231d43" d="M 406.488281 763.597656 C 395.941406 763.5625 385.414062 763.121094 374.902344 762.265625 C 364.390625 761.40625 353.929688 760.144531 343.515625 758.46875 C 333.105469 756.792969 322.773438 754.714844 312.523438 752.234375 C 302.273438 749.75 292.136719 746.871094 282.113281 743.59375 C 272.089844 740.316406 262.207031 736.65625 252.472656 732.605469 C 242.734375 728.558594 233.167969 724.132812 223.777344 719.335938 C 214.386719 714.539062 205.195312 709.382812 196.207031 703.863281 C 187.21875 698.347656 178.460938 692.488281 169.933594 686.285156 L 122.109375 701.683594 L 36.855469 726.742188 L 67.203125 643.542969 L 81.621094 596.472656 C 66.824219 575.414062 54.34375 553.0625 44.1875 529.414062 C 33.359375 504.207031 25.554688 478.097656 20.765625 451.085938 C 15.96875 423.921875 14.488281 396.578125 16.328125 369.050781 C 16.976562 359.582031 18.019531 350.160156 19.460938 340.777344 C 20.898438 331.398438 22.734375 322.09375 24.957031 312.867188 C 27.183594 303.640625 29.792969 294.523438 32.789062 285.515625 C 35.78125 276.511719 39.152344 267.648438 42.894531 258.925781 C 46.636719 250.203125 50.738281 241.652344 55.199219 233.277344 C 59.664062 224.902344 64.46875 216.726562 69.621094 208.757812 C 74.773438 200.785156 80.253906 193.046875 86.058594 185.535156 C 91.863281 178.027344 97.972656 170.777344 104.390625 163.785156 C 135.851562 129.472656 173.785156 101.867188 217.140625 81.726562 C 260.433594 61.617188 306.957031 49.960938 355.421875 47.089844 C 405.554688 44.117188 455.578125 50.71875 504.105469 66.707031 C 552.628906 82.699219 596.78125 107.128906 635.328125 139.316406 C 672.589844 170.4375 703.074219 207.460938 725.929688 249.367188 C 748.824219 291.335938 762.917969 336.085938 767.820312 382.378906 C 768.449219 388.3125 768.925781 394.257812 769.238281 400.214844 C 769.554688 406.171875 769.710938 412.132812 769.710938 418.097656 C 769.710938 424.066406 769.550781 430.027344 769.234375 435.984375 C 768.917969 441.941406 768.441406 447.886719 767.8125 453.816406 C 767.179688 459.75 766.390625 465.660156 765.441406 471.550781 C 764.496094 477.441406 763.394531 483.304688 762.140625 489.136719 C 760.882812 494.96875 759.472656 500.761719 757.910156 506.519531 C 756.34375 512.277344 754.628906 517.988281 752.761719 523.652344 C 750.894531 529.320312 748.878906 534.933594 746.714844 540.492188 C 744.550781 546.050781 742.238281 551.550781 739.785156 556.984375 C 737.328125 562.421875 734.730469 567.789062 731.988281 573.089844 C 729.246094 578.386719 726.367188 583.609375 723.347656 588.757812 C 720.332031 593.902344 717.179688 598.964844 713.894531 603.945312 C 710.605469 608.925781 707.191406 613.8125 703.644531 618.609375 C 700.097656 623.40625 696.429688 628.109375 692.632812 632.710938 C 688.839844 637.316406 684.925781 641.8125 680.890625 646.210938 C 649.429688 680.519531 611.496094 708.128906 568.136719 728.265625 C 524.847656 748.378906 478.324219 760.03125 429.859375 762.90625 C 422.066406 763.367188 414.277344 763.59375 406.488281 763.597656 Z M 174.152344 661.019531 L 178.871094 664.574219 C 187.007812 670.683594 195.378906 676.453125 203.980469 681.890625 C 212.582031 687.324219 221.386719 692.40625 230.394531 697.136719 C 239.402344 701.867188 248.585938 706.226562 257.945312 710.222656 C 267.304688 714.214844 276.808594 717.828125 286.453125 721.058594 C 296.101562 724.289062 305.863281 727.128906 315.742188 729.578125 C 325.617188 732.027344 335.574219 734.074219 345.613281 735.726562 C 355.65625 737.375 365.746094 738.621094 375.886719 739.460938 C 386.023438 740.300781 396.183594 740.734375 406.355469 740.761719 C 552.351562 740.765625 685.722656 654.386719 731.148438 516.53125 C 758.972656 432.078125 750.027344 341.066406 705.953125 260.265625 C 661.746094 179.222656 587.53125 118.15625 496.980469 88.324219 C 406.433594 58.488281 310.457031 63.476562 226.730469 102.367188 C 143.257812 141.140625 81.960938 209.007812 54.132812 293.460938 C 21.546875 392.359375 39.492188 499.628906 103.363281 587.757812 L 106.691406 592.347656 L 88.6875 651.058594 L 73.683594 692.199219 L 115.554688 679.890625 Z M 392.640625 701.316406 C 386.605469 701.308594 380.574219 701.117188 374.550781 700.738281 C 368.527344 700.363281 362.519531 699.800781 356.53125 699.054688 C 350.539062 698.308594 344.578125 697.382812 338.648438 696.273438 C 332.714844 695.160156 326.820312 693.871094 320.96875 692.398438 C 315.113281 690.925781 309.308594 689.277344 303.558594 687.449219 C 297.804688 685.621094 292.113281 683.617188 286.484375 681.441406 C 280.855469 679.265625 275.296875 676.917969 269.8125 674.402344 C 264.324219 671.886719 258.921875 669.203125 253.597656 666.355469 C 248.277344 663.507812 243.046875 660.496094 237.910156 657.328125 C 232.773438 654.160156 227.738281 650.835938 222.804688 647.359375 C 217.871094 643.882812 213.050781 640.257812 208.339844 636.484375 C 203.625 632.710938 199.035156 628.796875 194.5625 624.742188 C 190.09375 620.6875 185.75 616.5 181.535156 612.179688 C 177.320312 607.859375 173.242188 603.414062 169.300781 598.84375 C 165.355469 594.273438 161.558594 589.585938 157.902344 584.785156 C 154.25 579.980469 150.742188 575.070312 147.390625 570.050781 C 144.035156 565.03125 140.839844 559.917969 137.796875 554.703125 C 134.757812 549.488281 131.878906 544.1875 129.164062 538.796875 C 126.449219 533.40625 123.902344 527.9375 121.519531 522.390625 C 119.140625 516.84375 116.933594 511.226562 114.894531 505.546875 C 112.859375 499.863281 111 494.125 109.316406 488.328125 C 107.632812 482.53125 106.125 476.691406 104.800781 470.800781 C 103.472656 464.914062 102.328125 458.992188 101.367188 453.03125 C 100.402344 447.074219 99.621094 441.089844 99.027344 435.085938 C 98.429688 429.078125 98.015625 423.058594 97.789062 417.027344 C 97.5625 410.996094 97.519531 404.964844 97.660156 398.929688 C 97.804688 392.894531 98.128906 386.871094 98.640625 380.855469 C 99.152344 374.84375 99.847656 368.851562 100.726562 362.878906 C 101.605469 356.90625 102.664062 350.96875 103.910156 345.0625 C 105.152344 339.15625 106.574219 333.292969 108.175781 327.472656 C 109.777344 321.652344 111.554688 315.886719 113.511719 310.179688 C 115.46875 304.46875 117.59375 298.824219 119.898438 293.242188 C 122.199219 287.664062 124.667969 282.160156 127.308594 276.730469 C 129.945312 271.300781 132.746094 265.960938 135.714844 260.703125 C 138.679688 255.445312 141.804688 250.285156 145.085938 245.21875 C 148.371094 240.152344 151.804688 235.195312 155.390625 230.339844 C 158.976562 225.484375 162.710938 220.746094 166.585938 216.117188 C 170.464844 211.492188 174.476562 206.988281 178.632812 202.609375 C 182.785156 198.230469 187.066406 193.980469 191.480469 189.863281 C 195.894531 185.746094 200.429688 181.769531 205.085938 177.929688 C 209.746094 174.089844 214.515625 170.394531 219.398438 166.847656 C 224.28125 163.300781 229.269531 159.90625 234.363281 156.667969 C 239.453125 153.425781 244.640625 150.34375 249.921875 147.417969 C 255.203125 144.496094 260.566406 141.738281 266.015625 139.144531 C 271.464844 136.546875 276.988281 134.121094 282.589844 131.867188 C 288.1875 129.609375 293.847656 127.527344 299.574219 125.621094 C 305.300781 123.710938 311.082031 121.980469 316.914062 120.425781 C 322.746094 118.871094 328.617188 117.496094 334.535156 116.300781 C 340.453125 115.105469 346.398438 114.09375 352.378906 113.261719 C 358.355469 112.433594 364.355469 111.785156 370.371094 111.324219 C 376.390625 110.859375 382.417969 110.582031 388.453125 110.492188 C 394.488281 110.398438 400.519531 110.488281 406.550781 110.765625 C 412.578125 111.042969 418.59375 111.503906 424.59375 112.148438 C 430.597656 112.792969 436.574219 113.621094 442.523438 114.632812 C 448.472656 115.644531 454.386719 116.839844 460.265625 118.210938 C 466.140625 119.585938 471.972656 121.140625 477.753906 122.871094 C 483.535156 124.601562 489.261719 126.507812 494.925781 128.589844 C 500.589844 130.671875 506.1875 132.925781 511.714844 135.351562 C 517.242188 137.777344 522.6875 140.371094 528.058594 143.128906 C 533.425781 145.886719 538.703125 148.808594 543.894531 151.890625 C 549.082031 154.972656 554.171875 158.210938 559.164062 161.605469 C 564.15625 165 569.035156 168.546875 573.8125 172.238281 C 578.585938 175.933594 583.238281 179.769531 587.777344 183.75 C 592.316406 187.730469 596.730469 191.84375 601.015625 196.09375 C 605.300781 200.34375 609.453125 204.71875 613.472656 209.222656 C 617.488281 213.726562 621.367188 218.351562 625.101562 223.09375 C 628.835938 227.835938 632.421875 232.6875 635.859375 237.648438 C 639.296875 242.609375 642.578125 247.671875 645.703125 252.835938 C 648.832031 257.996094 651.796875 263.25 654.601562 268.59375 C 657.40625 273.941406 660.046875 279.363281 662.519531 284.871094 C 664.992188 290.378906 667.292969 295.953125 669.421875 301.601562 C 671.554688 307.25 673.507812 312.957031 675.289062 318.722656 C 677.070312 324.492188 678.671875 330.308594 680.097656 336.171875 C 681.523438 342.039062 682.765625 347.941406 683.828125 353.882812 C 684.890625 359.824219 685.769531 365.792969 686.464844 371.789062 C 687.164062 377.785156 687.675781 383.792969 688.003906 389.820312 C 688.332031 395.847656 688.476562 401.878906 688.433594 407.914062 C 688.390625 413.953125 688.164062 419.980469 687.753906 426.003906 C 687.34375 432.023438 686.75 438.027344 685.96875 444.011719 C 685.191406 450 684.230469 455.953125 683.085938 461.878906 C 681.941406 467.808594 680.617188 473.691406 679.113281 479.539062 C 677.609375 485.382812 675.925781 491.175781 674.066406 496.917969 C 672.207031 502.660156 670.171875 508.339844 667.964844 513.957031 C 665.753906 519.578125 663.378906 525.121094 660.828125 530.59375 C 658.28125 536.066406 655.570312 541.453125 652.691406 546.757812 C 649.8125 552.0625 646.773438 557.277344 643.578125 562.394531 C 640.378906 567.515625 637.027344 572.53125 633.523438 577.445312 C 630.019531 582.359375 626.367188 587.160156 622.566406 591.851562 C 618.765625 596.542969 614.828125 601.109375 610.75 605.558594 C 606.667969 610.007812 602.457031 614.328125 598.113281 618.515625 C 593.769531 622.707031 589.300781 626.761719 584.707031 630.675781 C 580.113281 634.59375 575.40625 638.367188 570.582031 641.996094 C 565.757812 645.621094 560.828125 649.097656 555.792969 652.425781 C 550.753906 655.75 545.621094 658.917969 540.390625 661.929688 C 535.15625 664.941406 529.839844 667.789062 524.433594 670.472656 C 519.027344 673.160156 513.546875 675.675781 507.984375 678.023438 C 498.886719 681.875 489.617188 685.261719 480.175781 688.179688 C 470.738281 691.097656 461.171875 693.535156 451.488281 695.492188 C 441.804688 697.445312 432.042969 698.910156 422.210938 699.882812 C 412.378906 700.859375 402.523438 701.335938 392.640625 701.316406 Z M 392.640625 131.433594 C 241.796875 131.433594 119.078125 254.152344 119.078125 404.996094 C 119.078125 555.839844 241.796875 678.558594 392.640625 678.558594 C 543.484375 678.558594 666.203125 555.839844 666.203125 404.996094 C 666.203125 254.152344 543.484375 131.433594 392.640625 131.433594 Z M 392.640625 131.433594 " fill-opacity="1" fill-rule="nonzero"/><path fill="#231d43" d="M 269.546875 206.902344 C 271.367188 205.765625 273.234375 204.707031 275.148438 203.730469 C 277.0625 202.75 279.015625 201.859375 281.003906 201.050781 C 282.996094 200.242188 285.015625 199.519531 287.070312 198.886719 C 289.125 198.253906 291.199219 197.710938 293.300781 197.253906 C 295.398438 196.800781 297.515625 196.4375 299.648438 196.167969 C 301.777344 195.898438 303.917969 195.71875 306.0625 195.632812 C 308.210938 195.546875 310.355469 195.554688 312.503906 195.65625 C 314.648438 195.753906 316.789062 195.949219 318.917969 196.234375 C 321.046875 196.519531 323.160156 196.894531 325.257812 197.363281 C 327.351562 197.832031 329.425781 198.386719 331.476562 199.035156 C 333.523438 199.683594 335.539062 200.417969 337.527344 201.238281 C 339.511719 202.058594 341.457031 202.964844 343.363281 203.957031 C 345.269531 204.945312 347.128906 206.015625 348.945312 207.167969 C 350.757812 208.320312 352.519531 209.546875 354.226562 210.851562 C 355.933594 212.152344 357.582031 213.527344 359.171875 214.976562 C 360.761719 216.421875 362.285156 217.933594 363.742188 219.511719 L 357.003906 326.96875 C 354.316406 329.21875 351.484375 331.273438 348.515625 333.132812 C 343.605469 336.214844 338.402344 338.6875 332.914062 340.550781 C 327.421875 342.410156 321.792969 343.613281 316.019531 344.15625 C 317.300781 351.992188 318.964844 359.746094 321.011719 367.417969 C 323.058594 375.089844 325.480469 382.640625 328.273438 390.074219 C 331.066406 397.507812 334.21875 404.785156 337.734375 411.90625 C 341.246094 419.027344 345.101562 425.957031 349.296875 432.699219 C 353.496094 439.441406 358.015625 445.957031 362.855469 452.25 C 367.695312 458.546875 372.835938 464.585938 378.273438 470.371094 C 383.714844 476.15625 389.421875 481.660156 395.40625 486.882812 C 401.386719 492.105469 407.613281 497.019531 414.078125 501.628906 C 417.097656 496.59375 420.667969 491.984375 424.78125 487.796875 C 428.898438 483.609375 433.445312 479.964844 438.425781 476.855469 C 440.894531 475.3125 443.445312 473.914062 446.078125 472.664062 L 547.886719 514.527344 C 549.023438 517.652344 549.945312 520.839844 550.65625 524.089844 C 551.363281 527.339844 551.851562 530.621094 552.121094 533.933594 C 552.390625 537.25 552.4375 540.566406 552.261719 543.886719 C 552.085938 547.207031 551.691406 550.503906 551.074219 553.769531 C 550.457031 557.039062 549.625 560.25 548.578125 563.40625 C 547.53125 566.5625 546.277344 569.636719 544.820312 572.625 C 543.359375 575.613281 541.710938 578.488281 539.863281 581.257812 C 538.019531 584.023438 536 586.65625 533.804688 589.152344 C 531.605469 591.648438 529.253906 593.988281 526.742188 596.167969 C 524.234375 598.347656 521.589844 600.351562 518.808594 602.179688 C 516.03125 604.007812 513.144531 605.640625 510.144531 607.078125 C 507.148438 608.519531 504.066406 609.753906 500.90625 610.78125 C 497.742188 611.808594 494.523438 612.617188 491.253906 613.214844 C 487.980469 613.8125 484.6875 614.1875 481.363281 614.339844 C 478.042969 614.496094 474.726562 614.429688 471.414062 614.136719 C 468.097656 613.847656 464.820312 613.339844 461.578125 612.609375 C 457.308594 611.339844 453.070312 609.976562 448.855469 608.523438 C 444.625 607.0625 440.425781 605.515625 436.257812 603.878906 C 432.09375 602.242188 427.960938 600.519531 423.867188 598.710938 C 419.773438 596.902344 415.714844 595.007812 411.703125 593.027344 C 407.6875 591.050781 403.714844 588.988281 399.785156 586.839844 C 395.855469 584.695312 391.972656 582.46875 388.136719 580.160156 C 384.300781 577.851562 380.515625 575.464844 376.78125 572.996094 C 373.046875 570.53125 369.363281 567.988281 365.734375 565.367188 C 362.105469 562.746094 358.535156 560.046875 355.019531 557.277344 C 351.503906 554.507812 348.046875 551.664062 344.648438 548.746094 C 341.253906 545.832031 337.917969 542.84375 334.648438 539.789062 C 331.375 536.734375 328.167969 533.609375 325.027344 530.421875 C 321.886719 527.230469 318.816406 523.976562 315.8125 520.65625 C 312.808594 517.339844 309.875 513.957031 307.011719 510.515625 C 304.148438 507.074219 301.359375 503.574219 298.644531 500.015625 C 295.929688 496.457031 293.289062 492.84375 290.722656 489.175781 C 288.160156 485.503906 285.671875 481.785156 283.265625 478.011719 C 280.855469 474.238281 278.527344 470.414062 276.28125 466.542969 C 274.03125 462.671875 271.867188 458.753906 269.78125 454.792969 C 267.699219 450.832031 265.699219 446.828125 263.78125 442.78125 C 261.863281 438.738281 260.035156 434.652344 258.289062 430.53125 C 256.542969 426.40625 254.886719 422.25 253.316406 418.058594 C 251.746094 413.867188 250.261719 409.644531 248.871094 405.390625 C 247.476562 401.136719 246.171875 396.855469 244.957031 392.546875 C 243.742188 388.238281 242.621094 383.902344 241.585938 379.546875 C 240.554688 375.191406 239.613281 370.816406 238.761719 366.421875 C 237.914062 362.027344 237.15625 357.613281 236.492188 353.1875 C 235.828125 348.761719 235.257812 344.324219 234.777344 339.871094 C 234.300781 335.421875 233.914062 330.960938 233.625 326.496094 C 233.332031 322.027344 233.136719 317.554688 233.03125 313.082031 C 232.925781 308.605469 232.917969 304.128906 233 299.652344 C 233.082031 295.179688 233.261719 290.707031 233.53125 286.238281 C 233.804688 281.769531 234.167969 277.308594 234.625 272.855469 C 234.621094 272.847656 234.621094 272.839844 234.625 272.832031 C 235.554688 263.84375 236.863281 254.910156 238.550781 246.027344 C 239.917969 242 241.613281 238.117188 243.648438 234.382812 C 245.679688 230.648438 248.015625 227.113281 250.65625 223.777344 C 253.296875 220.445312 256.203125 217.363281 259.375 214.527344 C 262.546875 211.695312 265.9375 209.152344 269.546875 206.902344 Z M 269.546875 206.902344 " fill-opacity="1" fill-rule="nonzero"/><path fill="#231d43" d="M 478.058594 625.828125 C 471.652344 625.828125 465.328125 625.121094 459.078125 623.710938 L 458.699219 623.625 L 458.328125 623.515625 C 453.96875 622.21875 449.535156 620.792969 445.144531 619.28125 C 440.800781 617.789062 436.492188 616.207031 432.214844 614.53125 C 427.9375 612.859375 423.695312 611.097656 419.488281 609.25 C 415.285156 607.398438 411.121094 605.464844 406.996094 603.441406 C 402.871094 601.417969 398.792969 599.3125 394.757812 597.121094 C 390.71875 594.925781 386.730469 592.652344 382.789062 590.292969 C 378.847656 587.9375 374.957031 585.496094 371.113281 582.976562 C 367.273438 580.457031 363.488281 577.859375 359.753906 575.179688 C 356.023438 572.503906 352.347656 569.75 348.730469 566.921875 C 345.113281 564.089844 341.554688 561.1875 338.058594 558.207031 C 334.558594 555.230469 331.125 552.179688 327.757812 549.058594 C 324.386719 545.9375 321.082031 542.75 317.84375 539.492188 C 314.605469 536.230469 311.4375 532.90625 308.339844 529.519531 C 305.238281 526.128906 302.210938 522.675781 299.253906 519.160156 C 296.300781 515.644531 293.417969 512.066406 290.609375 508.429688 C 287.804688 504.796875 285.074219 501.101562 282.421875 497.355469 C 279.765625 493.605469 277.191406 489.800781 274.695312 485.945312 C 272.203125 482.089844 269.785156 478.183594 267.453125 474.226562 C 265.121094 470.269531 262.871094 466.265625 260.703125 462.214844 C 258.539062 458.164062 256.457031 454.070312 254.460938 449.933594 C 252.464844 445.796875 250.554688 441.621094 248.734375 437.402344 C 246.910156 433.1875 245.175781 428.933594 243.53125 424.648438 C 241.886719 420.359375 240.328125 416.039062 238.863281 411.683594 C 237.398438 407.332031 236.023438 402.949219 234.738281 398.539062 C 233.453125 394.128906 232.261719 389.695312 231.164062 385.234375 C 230.0625 380.773438 229.058594 376.292969 228.144531 371.792969 C 227.230469 367.289062 226.414062 362.769531 225.6875 358.234375 C 224.960938 353.699219 224.332031 349.152344 223.796875 344.589844 C 223.261719 340.027344 222.820312 335.457031 222.472656 330.875 C 222.128906 326.292969 221.878906 321.710938 221.722656 317.117188 C 221.566406 312.527344 221.507812 307.9375 221.542969 303.34375 C 221.578125 298.75 221.710938 294.160156 221.9375 289.570312 C 222.164062 284.984375 222.484375 280.402344 222.902344 275.828125 L 222.503906 275.238281 L 223.363281 271.085938 C 224.320312 262.011719 225.667969 252.871094 227.371094 243.902344 L 227.519531 243.121094 L 227.773438 242.371094 C 228.242188 240.992188 228.746094 239.628906 229.28125 238.277344 C 229.820312 236.921875 230.390625 235.585938 230.996094 234.261719 C 231.601562 232.941406 232.242188 231.632812 232.914062 230.34375 C 233.585938 229.054688 234.289062 227.78125 235.027344 226.527344 C 235.761719 225.269531 236.53125 224.035156 237.332031 222.820312 C 238.128906 221.605469 238.960938 220.410156 239.820312 219.238281 C 240.679688 218.0625 241.570312 216.914062 242.488281 215.785156 C 243.410156 214.65625 244.355469 213.554688 245.332031 212.472656 C 246.304688 211.394531 247.308594 210.339844 248.335938 209.3125 C 249.363281 208.28125 250.417969 207.28125 251.5 206.304688 C 252.578125 205.328125 253.683594 204.382812 254.808594 203.464844 C 255.9375 202.542969 257.089844 201.65625 258.261719 200.792969 C 259.433594 199.933594 260.628906 199.101562 261.84375 198.304688 C 263.058594 197.503906 264.292969 196.734375 265.550781 196 C 266.804688 195.261719 268.074219 194.558594 269.367188 193.882812 C 270.65625 193.210938 271.964844 192.574219 273.285156 191.96875 C 274.609375 191.363281 275.945312 190.789062 277.296875 190.253906 C 278.648438 189.714844 280.015625 189.210938 281.390625 188.742188 C 282.769531 188.273438 284.15625 187.84375 285.558594 187.445312 C 286.957031 187.046875 288.367188 186.683594 289.785156 186.359375 C 291.203125 186.03125 292.625 185.742188 294.058594 185.488281 C 295.492188 185.238281 296.929688 185.019531 298.375 184.839844 C 299.816406 184.660156 301.265625 184.515625 302.714844 184.410156 C 304.167969 184.300781 305.621094 184.234375 307.074219 184.199219 C 308.527344 184.167969 309.984375 184.171875 311.4375 184.210938 C 312.890625 184.253906 314.34375 184.332031 315.792969 184.445312 C 317.246094 184.5625 318.691406 184.714844 320.132812 184.902344 C 321.578125 185.089844 323.015625 185.316406 324.445312 185.578125 C 325.875 185.839844 327.300781 186.136719 328.714844 186.472656 C 330.132812 186.808594 331.539062 187.175781 332.933594 187.582031 C 334.332031 187.988281 335.71875 188.429688 337.09375 188.90625 C 338.46875 189.382812 339.828125 189.894531 341.179688 190.4375 C 347.066406 192.796875 352.621094 195.78125 357.84375 199.386719 C 363.0625 202.988281 367.816406 207.128906 372.109375 211.800781 L 375.402344 215.375 L 368.054688 332.558594 L 364.304688 335.695312 C 361.214844 338.28125 357.960938 340.644531 354.546875 342.78125 C 346.71875 347.703125 338.316406 351.257812 329.332031 353.441406 C 330.722656 359.910156 332.390625 366.308594 334.332031 372.632812 C 336.273438 378.957031 338.484375 385.1875 340.964844 391.320312 C 343.445312 397.453125 346.1875 403.46875 349.1875 409.367188 C 352.183594 415.265625 355.433594 421.023438 358.929688 426.640625 C 362.425781 432.257812 366.15625 437.710938 370.121094 443.007812 C 374.089844 448.300781 378.277344 453.417969 382.683594 458.351562 C 387.09375 463.285156 391.707031 468.019531 396.523438 472.554688 C 401.339844 477.09375 406.339844 481.414062 411.53125 485.515625 C 417.476562 478.269531 424.429688 472.164062 432.390625 467.210938 C 435.230469 465.4375 438.160156 463.828125 441.183594 462.390625 L 445.738281 460.222656 L 556.855469 505.914062 L 558.578125 510.628906 C 560.703125 516.433594 562.179688 522.398438 563.003906 528.527344 C 563.828125 534.652344 563.980469 540.796875 563.464844 546.957031 C 563.195312 550.277344 562.730469 553.570312 562.078125 556.839844 C 561.425781 560.105469 560.585938 563.320312 559.554688 566.492188 C 558.527344 569.660156 557.320312 572.757812 555.929688 575.785156 C 554.539062 578.8125 552.980469 581.75 551.246094 584.59375 C 549.515625 587.441406 547.625 590.175781 545.574219 592.800781 C 543.523438 595.425781 541.324219 597.921875 538.984375 600.292969 C 536.640625 602.660156 534.171875 604.886719 531.570312 606.96875 C 528.96875 609.046875 526.253906 610.972656 523.429688 612.738281 C 520.050781 614.863281 516.535156 616.742188 512.890625 618.375 C 509.246094 620.007812 505.503906 621.378906 501.667969 622.484375 C 497.832031 623.589844 493.9375 624.425781 489.980469 624.984375 C 486.027344 625.546875 482.054688 625.828125 478.058594 625.828125 Z M 464.441406 601.589844 C 465.761719 601.875 467.089844 602.121094 468.425781 602.324219 C 469.765625 602.527344 471.105469 602.6875 472.453125 602.804688 C 473.800781 602.921875 475.152344 602.992188 476.503906 603.023438 C 477.855469 603.054688 479.207031 603.039062 480.558594 602.984375 C 481.90625 602.925781 483.257812 602.824219 484.601562 602.683594 C 485.945312 602.539062 487.285156 602.351562 488.617188 602.121094 C 489.949219 601.890625 491.273438 601.621094 492.589844 601.304688 C 493.902344 600.988281 495.207031 600.632812 496.5 600.234375 C 497.789062 599.835938 499.070312 599.394531 500.332031 598.914062 C 501.597656 598.433594 502.84375 597.914062 504.074219 597.351562 C 505.304688 596.789062 506.515625 596.191406 507.707031 595.550781 C 508.898438 594.914062 510.070312 594.234375 511.21875 593.523438 C 512.367188 592.808594 513.488281 592.058594 514.589844 591.269531 C 515.691406 590.484375 516.765625 589.664062 517.8125 588.808594 C 518.859375 587.953125 519.878906 587.066406 520.867188 586.144531 C 521.855469 585.222656 522.816406 584.269531 523.746094 583.289062 C 524.675781 582.304688 525.570312 581.292969 526.433594 580.253906 C 527.300781 579.214844 528.128906 578.144531 528.925781 577.050781 C 529.71875 575.960938 530.480469 574.839844 531.203125 573.699219 C 531.925781 572.554688 532.613281 571.390625 533.261719 570.203125 C 533.910156 569.019531 534.519531 567.8125 535.089844 566.585938 C 535.660156 565.359375 536.191406 564.117188 536.683594 562.859375 C 537.171875 561.597656 537.625 560.324219 538.03125 559.035156 C 538.441406 557.746094 538.808594 556.445312 539.136719 555.132812 C 539.460938 553.820312 539.742188 552.5 539.984375 551.167969 C 540.226562 549.835938 540.421875 548.5 540.578125 547.15625 C 540.730469 545.8125 540.84375 544.464844 540.910156 543.117188 C 540.980469 541.765625 541.003906 540.414062 540.984375 539.0625 C 540.964844 537.710938 540.902344 536.359375 540.796875 535.011719 C 540.691406 533.664062 540.542969 532.320312 540.351562 530.980469 C 540.160156 529.640625 539.921875 528.3125 539.644531 526.988281 C 539.367188 525.664062 539.046875 524.351562 538.6875 523.046875 L 446.644531 485.199219 C 445.90625 485.621094 445.175781 486.054688 444.460938 486.503906 C 440.238281 489.128906 436.382812 492.210938 432.894531 495.757812 C 429.410156 499.304688 426.390625 503.210938 423.835938 507.480469 L 417.515625 518.019531 L 407.492188 510.90625 C 400.71875 506.082031 394.199219 500.933594 387.933594 495.464844 C 381.667969 489.996094 375.6875 484.230469 369.988281 478.171875 C 364.292969 472.109375 358.910156 465.785156 353.839844 459.191406 C 348.769531 452.601562 344.035156 445.773438 339.636719 438.714844 C 335.242188 431.65625 331.203125 424.394531 327.527344 416.9375 C 323.847656 409.476562 320.542969 401.855469 317.617188 394.070312 C 314.691406 386.285156 312.160156 378.375 310.015625 370.335938 C 307.871094 362.300781 306.128906 354.179688 304.785156 345.972656 L 302.84375 333.960938 L 314.960938 332.824219 C 319.847656 332.375 324.621094 331.359375 329.269531 329.78125 C 333.921875 328.203125 338.324219 326.105469 342.480469 323.488281 C 343.660156 322.746094 344.824219 321.964844 345.96875 321.140625 L 352.066406 223.886719 C 346.375 218.558594 339.910156 214.445312 332.671875 211.546875 C 330.371094 210.621094 328.023438 209.832031 325.628906 209.183594 C 323.234375 208.535156 320.808594 208.027344 318.355469 207.664062 C 315.902344 207.300781 313.433594 207.078125 310.953125 207.003906 C 308.472656 206.929688 306 207.003906 303.527344 207.21875 C 301.054688 207.4375 298.605469 207.796875 296.175781 208.300781 C 293.75 208.804688 291.355469 209.453125 289.003906 210.238281 C 286.652344 211.023438 284.351562 211.945312 282.105469 213 C 279.863281 214.058594 277.6875 215.242188 275.582031 216.554688 C 272.585938 218.429688 269.765625 220.542969 267.121094 222.894531 C 264.480469 225.246094 262.050781 227.800781 259.839844 230.558594 C 257.625 233.316406 255.65625 236.242188 253.9375 239.328125 C 252.214844 242.417969 250.761719 245.628906 249.578125 248.960938 C 248.140625 256.625 246.988281 264.414062 246.136719 272.160156 L 245.945312 274.027344 C 238.792969 342.992188 254.496094 410.59375 291.363281 469.527344 C 296.011719 476.945312 300.964844 484.15625 306.226562 491.152344 C 311.484375 498.152344 317.03125 504.914062 322.867188 511.441406 C 328.699219 517.972656 334.796875 524.238281 341.164062 530.25 C 347.527344 536.261719 354.136719 541.992188 360.988281 547.441406 C 367.839844 552.890625 374.90625 558.042969 382.195312 562.894531 C 389.484375 567.742188 396.964844 572.277344 404.636719 576.492188 C 412.308594 580.707031 420.144531 584.59375 428.148438 588.144531 C 436.148438 591.695312 444.285156 594.902344 452.558594 597.761719 C 456.519531 599.128906 460.515625 600.414062 464.441406 601.585938 Z M 464.441406 601.589844 " fill-opacity="1" fill-rule="nonzero"/></svg>