<svg xmlns="http://www.w3.org/2000/svg" xmlns:xlink="http://www.w3.org/1999/xlink" width="730" zoomAndPan="magnify" viewBox="0 0 547.5 149.999998" height="200" preserveAspectRatio="xMidYMid meet" version="1.0"><defs><g/><clipPath id="37cb006678"><path d="M 64 17 L 185 17 L 185 135 L 64 135 Z M 64 17 " clip-rule="nonzero"/></clipPath><clipPath id="8e7e00d31b"><path d="M 24.152344 72.09375 L 108.691406 -28.148438 L 195.183594 44.800781 L 110.640625 145.039062 Z M 24.152344 72.09375 " clip-rule="nonzero"/></clipPath><clipPath id="f158a8d813"><path d="M 24.152344 72.09375 L 108.691406 -28.148438 L 195.183594 44.800781 L 110.640625 145.039062 Z M 24.152344 72.09375 " clip-rule="nonzero"/></clipPath><clipPath id="4b88b3b85d"><path d="M 105.226562 111.90625 L 113.46875 111.90625 L 113.46875 120.148438 L 105.226562 120.148438 Z M 105.226562 111.90625 " clip-rule="nonzero"/></clipPath></defs><g clip-path="url(#37cb006678)"><g clip-path="url(#8e7e00d31b)"><g clip-path="url(#f158a8d813)"><path fill="#f7c532" d="M 85.828125 17.8125 L 169.644531 32.8125 C 183.46875 35.285156 189.429688 51.796875 180.375 62.53125 L 125.480469 127.621094 C 116.425781 138.355469 99.144531 135.265625 94.375 122.054688 L 65.453125 41.96875 C 60.683594 28.761719 72.003906 15.339844 85.828125 17.8125 Z M 85.828125 17.8125 " fill-opacity="1" fill-rule="nonzero"/></g></g></g><g clip-path="url(#4b88b3b85d)"><path fill="#000000" d="M 113.714844 116.148438 C 113.714844 116.429688 113.6875 116.703125 113.632812 116.976562 C 113.578125 117.25 113.496094 117.515625 113.390625 117.773438 C 113.285156 118.03125 113.152344 118.277344 112.996094 118.507812 C 112.84375 118.738281 112.667969 118.953125 112.46875 119.152344 C 112.273438 119.347656 112.058594 119.523438 111.828125 119.679688 C 111.59375 119.832031 111.351562 119.964844 111.09375 120.070312 C 110.835938 120.179688 110.570312 120.257812 110.296875 120.3125 C 110.023438 120.367188 109.746094 120.394531 109.46875 120.394531 C 109.191406 120.394531 108.914062 120.367188 108.640625 120.3125 C 108.367188 120.257812 108.101562 120.179688 107.84375 120.070312 C 107.585938 119.964844 107.34375 119.832031 107.109375 119.679688 C 106.878906 119.523438 106.664062 119.347656 106.46875 119.152344 C 106.269531 118.953125 106.09375 118.738281 105.941406 118.507812 C 105.785156 118.277344 105.65625 118.03125 105.546875 117.773438 C 105.441406 117.515625 105.359375 117.25 105.304688 116.976562 C 105.253906 116.703125 105.226562 116.429688 105.226562 116.148438 C 105.226562 115.871094 105.253906 115.59375 105.304688 115.320312 C 105.359375 115.046875 105.441406 114.785156 105.546875 114.527344 C 105.65625 114.269531 105.785156 114.023438 105.941406 113.792969 C 106.09375 113.558594 106.269531 113.347656 106.46875 113.148438 C 106.664062 112.953125 106.878906 112.777344 107.109375 112.621094 C 107.34375 112.464844 107.585938 112.335938 107.84375 112.230469 C 108.101562 112.121094 108.367188 112.042969 108.640625 111.988281 C 108.914062 111.933594 109.191406 111.90625 109.46875 111.90625 C 109.746094 111.90625 110.023438 111.933594 110.296875 111.988281 C 110.570312 112.042969 110.835938 112.121094 111.09375 112.230469 C 111.351562 112.335938 111.59375 112.464844 111.828125 112.621094 C 112.058594 112.777344 112.273438 112.953125 112.46875 113.148438 C 112.667969 113.347656 112.84375 113.558594 112.996094 113.792969 C 113.152344 114.023438 113.285156 114.269531 113.390625 114.527344 C 113.496094 114.785156 113.578125 115.046875 113.632812 115.320312 C 113.6875 115.59375 113.714844 115.871094 113.714844 116.148438 Z M 113.714844 116.148438 " fill-opacity="1" fill-rule="nonzero"/></g><g fill="#f7c532" fill-opacity="0.302"><g transform="translate(208.347074, 119.578335)"><g><path d="M 3.484375 0 L 3.484375 -78.71875 L 35 -78.71875 L 35 -63.421875 L 19.34375 -63.421875 L 19.34375 -50.859375 L 34.1875 -50.859375 L 34.1875 -35.734375 L 19.34375 -35.734375 L 19.34375 0 Z M 3.484375 0 "/></g></g></g><g fill="#f7c532" fill-opacity="0.302"><g transform="translate(243.079048, 119.578335)"><g><path d="M 2.75 0 L 2.75 -78.71875 L 17.96875 -78.71875 L 17.96875 0 Z M 2.75 0 "/></g></g></g><g fill="#f7c532" fill-opacity="0.302"><g transform="translate(262.04865, 119.578335)"><g><path d="M 10.265625 0 L 10.265625 -63.59375 L 0.921875 -63.59375 L 0.921875 -78.71875 L 35.375 -78.71875 L 35.375 -63.59375 L 26.03125 -63.59375 L 26.03125 0 Z M 10.265625 0 "/></g></g></g><g fill="#f7c532" fill-opacity="0.302"><g transform="translate(296.505694, 119.578335)"><g/></g></g><g fill="#f7c532" fill-opacity="0.302"><g transform="translate(316.116782, 119.578335)"><g><path d="M 3.484375 0 L 3.484375 -78.71875 L 35 -78.71875 L 35 -63.421875 L 19.34375 -63.421875 L 19.34375 -50.859375 L 34.1875 -50.859375 L 34.1875 -35.734375 L 19.34375 -35.734375 L 19.34375 0 Z M 3.484375 0 "/></g></g></g><g fill="#f7c532" fill-opacity="0.302"><g transform="translate(350.848753, 119.578335)"><g><path d="M 22.265625 0.734375 C 15.910156 0.734375 11.082031 -1.203125 7.78125 -5.078125 C 4.488281 -8.960938 2.84375 -14.414062 2.84375 -21.4375 L 2.84375 -58.921875 C 2.84375 -65.703125 4.488281 -70.816406 7.78125 -74.265625 C 11.082031 -77.722656 15.910156 -79.453125 22.265625 -79.453125 C 28.617188 -79.453125 33.445312 -77.722656 36.75 -74.265625 C 40.050781 -70.816406 41.703125 -65.703125 41.703125 -58.921875 L 41.703125 -21.4375 C 41.703125 -14.351562 40.050781 -8.882812 36.75 -5.03125 C 33.445312 -1.1875 28.617188 0.734375 22.265625 0.734375 Z M 22.265625 -13.75 C 23.671875 -13.75 24.617188 -14.359375 25.109375 -15.578125 C 25.597656 -16.796875 25.84375 -18.503906 25.84375 -20.703125 L 25.84375 -59.203125 C 25.84375 -60.910156 25.613281 -62.296875 25.15625 -63.359375 C 24.695312 -64.429688 23.765625 -64.96875 22.359375 -64.96875 C 19.734375 -64.96875 18.421875 -62.984375 18.421875 -59.015625 L 18.421875 -20.625 C 18.421875 -18.363281 18.691406 -16.648438 19.234375 -15.484375 C 19.785156 -14.328125 20.796875 -13.75 22.265625 -13.75 Z M 22.265625 -13.75 "/></g></g></g><g fill="#f7c532" fill-opacity="0.302"><g transform="translate(393.553546, 119.578335)"><g><path d="M 22.265625 0.734375 C 15.910156 0.734375 11.082031 -1.203125 7.78125 -5.078125 C 4.488281 -8.960938 2.84375 -14.414062 2.84375 -21.4375 L 2.84375 -58.921875 C 2.84375 -65.703125 4.488281 -70.816406 7.78125 -74.265625 C 11.082031 -77.722656 15.910156 -79.453125 22.265625 -79.453125 C 28.617188 -79.453125 33.445312 -77.722656 36.75 -74.265625 C 40.050781 -70.816406 41.703125 -65.703125 41.703125 -58.921875 L 41.703125 -21.4375 C 41.703125 -14.351562 40.050781 -8.882812 36.75 -5.03125 C 33.445312 -1.1875 28.617188 0.734375 22.265625 0.734375 Z M 22.265625 -13.75 C 23.671875 -13.75 24.617188 -14.359375 25.109375 -15.578125 C 25.597656 -16.796875 25.84375 -18.503906 25.84375 -20.703125 L 25.84375 -59.203125 C 25.84375 -60.910156 25.613281 -62.296875 25.15625 -63.359375 C 24.695312 -64.429688 23.765625 -64.96875 22.359375 -64.96875 C 19.734375 -64.96875 18.421875 -62.984375 18.421875 -59.015625 L 18.421875 -20.625 C 18.421875 -18.363281 18.691406 -16.648438 19.234375 -15.484375 C 19.785156 -14.328125 20.796875 -13.75 22.265625 -13.75 Z M 22.265625 -13.75 "/></g></g></g><g fill="#f7c532" fill-opacity="0.302"><g transform="translate(436.258338, 119.578335)"><g><path d="M 3.484375 -78.71875 L 25.203125 -78.71875 C 30.816406 -78.71875 35.03125 -77.160156 37.84375 -74.046875 C 40.65625 -70.929688 42.09375 -66.316406 42.15625 -60.203125 L 42.34375 -23.375 C 42.394531 -15.613281 41.046875 -9.773438 38.296875 -5.859375 C 35.554688 -1.953125 31.007812 0 24.65625 0 L 3.484375 0 Z M 22.078125 -13.921875 C 24.953125 -13.921875 26.390625 -15.328125 26.390625 -18.140625 L 26.390625 -58.734375 C 26.390625 -60.515625 26.25 -61.847656 25.96875 -62.734375 C 25.695312 -63.617188 25.195312 -64.210938 24.46875 -64.515625 C 23.738281 -64.816406 22.609375 -64.96875 21.078125 -64.96875 L 19.34375 -64.96875 L 19.34375 -13.921875 Z M 22.078125 -13.921875 "/></g></g></g><g fill="#f7c532" fill-opacity="0.502"><g transform="translate(204.296525, 115.527792)"><g><path d="M 3.484375 0 L 3.484375 -78.71875 L 35 -78.71875 L 35 -63.421875 L 19.34375 -63.421875 L 19.34375 -50.859375 L 34.1875 -50.859375 L 34.1875 -35.734375 L 19.34375 -35.734375 L 19.34375 0 Z M 3.484375 0 "/></g></g></g><g fill="#f7c532" fill-opacity="0.502"><g transform="translate(239.028499, 115.527792)"><g><path d="M 2.75 0 L 2.75 -78.71875 L 17.96875 -78.71875 L 17.96875 0 Z M 2.75 0 "/></g></g></g><g fill="#f7c532" fill-opacity="0.502"><g transform="translate(257.998101, 115.527792)"><g><path d="M 10.265625 0 L 10.265625 -63.59375 L 0.921875 -63.59375 L 0.921875 -78.71875 L 35.375 -78.71875 L 35.375 -63.59375 L 26.03125 -63.59375 L 26.03125 0 Z M 10.265625 0 "/></g></g></g><g fill="#f7c532" fill-opacity="0.502"><g transform="translate(292.455145, 115.527792)"><g/></g></g><g fill="#f7c532" fill-opacity="0.502"><g transform="translate(312.066234, 115.527792)"><g><path d="M 3.484375 0 L 3.484375 -78.71875 L 35 -78.71875 L 35 -63.421875 L 19.34375 -63.421875 L 19.34375 -50.859375 L 34.1875 -50.859375 L 34.1875 -35.734375 L 19.34375 -35.734375 L 19.34375 0 Z M 3.484375 0 "/></g></g></g><g fill="#f7c532" fill-opacity="0.502"><g transform="translate(346.798205, 115.527792)"><g><path d="M 22.265625 0.734375 C 15.910156 0.734375 11.082031 -1.203125 7.78125 -5.078125 C 4.488281 -8.960938 2.84375 -14.414062 2.84375 -21.4375 L 2.84375 -58.921875 C 2.84375 -65.703125 4.488281 -70.816406 7.78125 -74.265625 C 11.082031 -77.722656 15.910156 -79.453125 22.265625 -79.453125 C 28.617188 -79.453125 33.445312 -77.722656 36.75 -74.265625 C 40.050781 -70.816406 41.703125 -65.703125 41.703125 -58.921875 L 41.703125 -21.4375 C 41.703125 -14.351562 40.050781 -8.882812 36.75 -5.03125 C 33.445312 -1.1875 28.617188 0.734375 22.265625 0.734375 Z M 22.265625 -13.75 C 23.671875 -13.75 24.617188 -14.359375 25.109375 -15.578125 C 25.597656 -16.796875 25.84375 -18.503906 25.84375 -20.703125 L 25.84375 -59.203125 C 25.84375 -60.910156 25.613281 -62.296875 25.15625 -63.359375 C 24.695312 -64.429688 23.765625 -64.96875 22.359375 -64.96875 C 19.734375 -64.96875 18.421875 -62.984375 18.421875 -59.015625 L 18.421875 -20.625 C 18.421875 -18.363281 18.691406 -16.648438 19.234375 -15.484375 C 19.785156 -14.328125 20.796875 -13.75 22.265625 -13.75 Z M 22.265625 -13.75 "/></g></g></g><g fill="#f7c532" fill-opacity="0.502"><g transform="translate(389.502997, 115.527792)"><g><path d="M 22.265625 0.734375 C 15.910156 0.734375 11.082031 -1.203125 7.78125 -5.078125 C 4.488281 -8.960938 2.84375 -14.414062 2.84375 -21.4375 L 2.84375 -58.921875 C 2.84375 -65.703125 4.488281 -70.816406 7.78125 -74.265625 C 11.082031 -77.722656 15.910156 -79.453125 22.265625 -79.453125 C 28.617188 -79.453125 33.445312 -77.722656 36.75 -74.265625 C 40.050781 -70.816406 41.703125 -65.703125 41.703125 -58.921875 L 41.703125 -21.4375 C 41.703125 -14.351562 40.050781 -8.882812 36.75 -5.03125 C 33.445312 -1.1875 28.617188 0.734375 22.265625 0.734375 Z M 22.265625 -13.75 C 23.671875 -13.75 24.617188 -14.359375 25.109375 -15.578125 C 25.597656 -16.796875 25.84375 -18.503906 25.84375 -20.703125 L 25.84375 -59.203125 C 25.84375 -60.910156 25.613281 -62.296875 25.15625 -63.359375 C 24.695312 -64.429688 23.765625 -64.96875 22.359375 -64.96875 C 19.734375 -64.96875 18.421875 -62.984375 18.421875 -59.015625 L 18.421875 -20.625 C 18.421875 -18.363281 18.691406 -16.648438 19.234375 -15.484375 C 19.785156 -14.328125 20.796875 -13.75 22.265625 -13.75 Z M 22.265625 -13.75 "/></g></g></g><g fill="#f7c532" fill-opacity="0.502"><g transform="translate(432.20779, 115.527792)"><g><path d="M 3.484375 -78.71875 L 25.203125 -78.71875 C 30.816406 -78.71875 35.03125 -77.160156 37.84375 -74.046875 C 40.65625 -70.929688 42.09375 -66.316406 42.15625 -60.203125 L 42.34375 -23.375 C 42.394531 -15.613281 41.046875 -9.773438 38.296875 -5.859375 C 35.554688 -1.953125 31.007812 0 24.65625 0 L 3.484375 0 Z M 22.078125 -13.921875 C 24.953125 -13.921875 26.390625 -15.328125 26.390625 -18.140625 L 26.390625 -58.734375 C 26.390625 -60.515625 26.25 -61.847656 25.96875 -62.734375 C 25.695312 -63.617188 25.195312 -64.210938 24.46875 -64.515625 C 23.738281 -64.816406 22.609375 -64.96875 21.078125 -64.96875 L 19.34375 -64.96875 L 19.34375 -13.921875 Z M 22.078125 -13.921875 "/></g></g></g><g fill="#ffffff" fill-opacity="1"><g transform="translate(200.245991, 111.477251)"><g><path d="M 3.484375 0 L 3.484375 -78.71875 L 35 -78.71875 L 35 -63.421875 L 19.34375 -63.421875 L 19.34375 -50.859375 L 34.1875 -50.859375 L 34.1875 -35.734375 L 19.34375 -35.734375 L 19.34375 0 Z M 3.484375 0 "/></g></g></g><g fill="#ffffff" fill-opacity="1"><g transform="translate(234.977965, 111.477251)"><g><path d="M 2.75 0 L 2.75 -78.71875 L 17.96875 -78.71875 L 17.96875 0 Z M 2.75 0 "/></g></g></g><g fill="#ffffff" fill-opacity="1"><g transform="translate(253.947567, 111.477251)"><g><path d="M 10.265625 0 L 10.265625 -63.59375 L 0.921875 -63.59375 L 0.921875 -78.71875 L 35.375 -78.71875 L 35.375 -63.59375 L 26.03125 -63.59375 L 26.03125 0 Z M 10.265625 0 "/></g></g></g><g fill="#ffffff" fill-opacity="1"><g transform="translate(288.404611, 111.477251)"><g/></g></g><g fill="#ffffff" fill-opacity="1"><g transform="translate(308.015699, 111.477251)"><g><path d="M 3.484375 0 L 3.484375 -78.71875 L 35 -78.71875 L 35 -63.421875 L 19.34375 -63.421875 L 19.34375 -50.859375 L 34.1875 -50.859375 L 34.1875 -35.734375 L 19.34375 -35.734375 L 19.34375 0 Z M 3.484375 0 "/></g></g></g><g fill="#ffffff" fill-opacity="1"><g transform="translate(342.74767, 111.477251)"><g><path d="M 22.265625 0.734375 C 15.910156 0.734375 11.082031 -1.203125 7.78125 -5.078125 C 4.488281 -8.960938 2.84375 -14.414062 2.84375 -21.4375 L 2.84375 -58.921875 C 2.84375 -65.703125 4.488281 -70.816406 7.78125 -74.265625 C 11.082031 -77.722656 15.910156 -79.453125 22.265625 -79.453125 C 28.617188 -79.453125 33.445312 -77.722656 36.75 -74.265625 C 40.050781 -70.816406 41.703125 -65.703125 41.703125 -58.921875 L 41.703125 -21.4375 C 41.703125 -14.351562 40.050781 -8.882812 36.75 -5.03125 C 33.445312 -1.1875 28.617188 0.734375 22.265625 0.734375 Z M 22.265625 -13.75 C 23.671875 -13.75 24.617188 -14.359375 25.109375 -15.578125 C 25.597656 -16.796875 25.84375 -18.503906 25.84375 -20.703125 L 25.84375 -59.203125 C 25.84375 -60.910156 25.613281 -62.296875 25.15625 -63.359375 C 24.695312 -64.429688 23.765625 -64.96875 22.359375 -64.96875 C 19.734375 -64.96875 18.421875 -62.984375 18.421875 -59.015625 L 18.421875 -20.625 C 18.421875 -18.363281 18.691406 -16.648438 19.234375 -15.484375 C 19.785156 -14.328125 20.796875 -13.75 22.265625 -13.75 Z M 22.265625 -13.75 "/></g></g></g><g fill="#ffffff" fill-opacity="1"><g transform="translate(385.452463, 111.477251)"><g><path d="M 22.265625 0.734375 C 15.910156 0.734375 11.082031 -1.203125 7.78125 -5.078125 C 4.488281 -8.960938 2.84375 -14.414062 2.84375 -21.4375 L 2.84375 -58.921875 C 2.84375 -65.703125 4.488281 -70.816406 7.78125 -74.265625 C 11.082031 -77.722656 15.910156 -79.453125 22.265625 -79.453125 C 28.617188 -79.453125 33.445312 -77.722656 36.75 -74.265625 C 40.050781 -70.816406 41.703125 -65.703125 41.703125 -58.921875 L 41.703125 -21.4375 C 41.703125 -14.351562 40.050781 -8.882812 36.75 -5.03125 C 33.445312 -1.1875 28.617188 0.734375 22.265625 0.734375 Z M 22.265625 -13.75 C 23.671875 -13.75 24.617188 -14.359375 25.109375 -15.578125 C 25.597656 -16.796875 25.84375 -18.503906 25.84375 -20.703125 L 25.84375 -59.203125 C 25.84375 -60.910156 25.613281 -62.296875 25.15625 -63.359375 C 24.695312 -64.429688 23.765625 -64.96875 22.359375 -64.96875 C 19.734375 -64.96875 18.421875 -62.984375 18.421875 -59.015625 L 18.421875 -20.625 C 18.421875 -18.363281 18.691406 -16.648438 19.234375 -15.484375 C 19.785156 -14.328125 20.796875 -13.75 22.265625 -13.75 Z M 22.265625 -13.75 "/></g></g></g><g fill="#ffffff" fill-opacity="1"><g transform="translate(428.157255, 111.477251)"><g><path d="M 3.484375 -78.71875 L 25.203125 -78.71875 C 30.816406 -78.71875 35.03125 -77.160156 37.84375 -74.046875 C 40.65625 -70.929688 42.09375 -66.316406 42.15625 -60.203125 L 42.34375 -23.375 C 42.394531 -15.613281 41.046875 -9.773438 38.296875 -5.859375 C 35.554688 -1.953125 31.007812 0 24.65625 0 L 3.484375 0 Z M 22.078125 -13.921875 C 24.953125 -13.921875 26.390625 -15.328125 26.390625 -18.140625 L 26.390625 -58.734375 C 26.390625 -60.515625 26.25 -61.847656 25.96875 -62.734375 C 25.695312 -63.617188 25.195312 -64.210938 24.46875 -64.515625 C 23.738281 -64.816406 22.609375 -64.96875 21.078125 -64.96875 L 19.34375 -64.96875 L 19.34375 -13.921875 Z M 22.078125 -13.921875 "/></g></g></g></svg>